<svg width="19" height="19" viewBox="0 0 19 19" fill="none" xmlns="http://www.w3.org/2000/svg">
<path d="M12.8333 16.5V18.3333H1.83333C0.825 18.3333 0 17.5083 0 16.5V4.58333H1.83333V16.5H12.8333ZM16.5 0H5.5C4.49167 0 3.66667 0.825 3.66667 1.83333V12.8333C3.66667 13.8417 4.49167 14.6667 5.5 14.6667H16.5C17.5083 14.6667 18.3333 13.8417 18.3333 12.8333V1.83333C18.3333 0.825 17.5083 0 16.5 0ZM11.9167 11H10.0833V9.16667H11.9167V11ZM13.5667 6.23333C13.2917 6.6 12.925 6.875 12.5583 7.05833C12.375 7.24167 12.1917 7.33333 12.1 7.51667C11.9167 7.7 11.9167 7.975 11.9167 8.25H10.0833C10.0833 7.79167 10.175 7.425 10.3583 7.15C10.5417 6.875 10.8167 6.6 11.275 6.325C11.55 6.14167 11.7333 5.95833 11.825 5.775C12.0083 5.59167 12.0083 5.31667 12.0083 5.04167C12.0083 4.76667 11.9167 4.49167 11.7333 4.30833C11.55 4.125 11.3667 4.03333 11 4.03333C10.725 4.03333 10.5417 4.125 10.3583 4.21667C10.175 4.4 10.0833 4.58333 10.0833 4.85833H8.34167C8.34167 4.125 8.525 3.575 9.075 3.20833C9.71667 2.93333 10.3583 2.75 11.1833 2.75C12.0083 2.75 12.7417 2.93333 13.2 3.39167C13.6583 3.85 13.9333 4.4 13.9333 5.04167C13.9333 5.5 13.75 5.86667 13.5667 6.23333Z" fill="#9A9AA9"/>
</svg>
