<svg width="19" height="19" viewBox="0 0 19 19" fill="none" xmlns="http://www.w3.org/2000/svg">
<path d="M16 8V5C16 3.897 15.103 3 14 3H11C11 1.346 9.654 0 8 0C6.346 0 5 1.346 5 3H2C0.897 3 0 3.897 0 5V9H1C1.53043 9 2.03914 9.21071 2.41421 9.58579C2.78929 9.96086 3 10.4696 3 11C3 11.5304 2.78929 12.0391 2.41421 12.4142C2.03914 12.7893 1.53043 13 1 13H0V17C0 18.103 0.897 19 2 19H6V18C6 17.4696 6.21071 16.9609 6.58579 16.5858C6.96086 16.2107 7.46957 16 8 16C8.53043 16 9.03914 16.2107 9.41421 16.5858C9.78929 16.9609 10 17.4696 10 18V19H14C15.103 19 16 18.103 16 17V14C17.654 14 19 12.654 19 11C19 9.346 17.654 8 16 8Z" fill="#FF8F6B"/>
</svg>
