<svg width="8" height="10" viewBox="0 0 8 10" fill="none" xmlns="http://www.w3.org/2000/svg">
<path fill-rule="evenodd" clip-rule="evenodd" d="M7.45297 2.18455C7.61506 2.18455 7.75 2.31913 7.75 2.49038V2.64871C7.75 2.81579 7.61506 2.95454 7.45297 2.95454H0.547439C0.384942 2.95454 0.25 2.81579 0.25 2.64871V2.49038C0.25 2.31913 0.384942 2.18455 0.547439 2.18455H1.76232C2.0091 2.18455 2.22388 2.00913 2.27939 1.76164L2.34301 1.47747C2.44189 1.09039 2.76729 0.833313 3.1397 0.833313H4.8603C5.22866 0.833313 5.5577 1.09039 5.65293 1.45706L5.72101 1.76122C5.77612 2.00913 5.9909 2.18455 6.23809 2.18455H7.45297ZM6.83576 7.97248C6.9626 6.79041 7.18466 3.98211 7.18466 3.95378C7.19277 3.86794 7.16481 3.78669 7.10929 3.72128C7.04972 3.66003 6.97435 3.62378 6.89128 3.62378H1.11189C1.02841 3.62378 0.948982 3.66003 0.893871 3.72128C0.837949 3.78669 0.810394 3.86794 0.814446 3.95378C0.815191 3.95898 0.823159 4.0579 0.83648 4.22328C0.89566 4.95796 1.06049 7.00421 1.167 7.97248C1.24237 8.68581 1.71041 9.13414 2.38836 9.15039C2.91151 9.16247 3.45047 9.16664 4.00158 9.16664C4.52068 9.16664 5.04789 9.16247 5.58725 9.15039C6.2887 9.13831 6.75634 8.69789 6.83576 7.97248Z" fill="#E71D36"/>
</svg>
